<?xml version="1.0" encoding="UTF-8"?>
<svg id="_图层_1" data-name="图层 1" xmlns="http://www.w3.org/2000/svg" xmlns:xlink="http://www.w3.org/1999/xlink" viewBox="0 0 1024 1024">
  <defs>
    <style>
      .cls-1 {
        fill: #f1f1f1;
      }

      .cls-2 {
        filter: url(#drop-shadow-1);
      }

      .cls-3 {
        filter: url(#drop-shadow-2);
      }

      .cls-4 {
        fill: #212121;
      }

      .cls-5 {
        fill: #ff8b00;
      }
    </style>
    <filter id="drop-shadow-1" x="332" y="845" width="386" height="154" filterUnits="userSpaceOnUse">
      <feOffset dx="12" dy="12"/>
      <feGaussianBlur result="blur" stdDeviation="10"/>
      <feFlood flood-color="#000" flood-opacity=".5"/>
      <feComposite in2="blur" operator="in"/>
      <feComposite in="SourceGraphic"/>
    </filter>
    <filter id="drop-shadow-2" x="90" y="411" width="869" height="188" filterUnits="userSpaceOnUse">
      <feOffset dx="12" dy="12"/>
      <feGaussianBlur result="blur-2" stdDeviation="10"/>
      <feFlood flood-color="#000" flood-opacity=".5"/>
      <feComposite in2="blur-2" operator="in"/>
      <feComposite in="SourceGraphic"/>
    </filter>
  </defs>
  <g id="_圆角" data-name="圆角">
    <path class="cls-1" d="M824,0H200C89.54,0,0,89.54,0,200v624c0,103.68,78.89,188.93,179.92,199h664.16c101.03-10.07,179.92-95.32,179.92-199V200c0-110.46-89.54-200-200-200Z"/>
    <path class="cls-5" d="M0,824c0,103.68,78.89,188.93,179.92,199h664.16c101.03-10.07,179.92-95.32,179.92-199v-13H0v13Z"/>
  </g>
  <g class="cls-2">
    <path class="cls-1" d="M370.65,951.6c-1.3,1.41-2.8,2.39-4.5,2.92-1.7.53-3.45.53-5.25,0-1.8-.53-3.3-1.72-4.5-3.58-.5-.71-.9-1.46-1.2-2.25-.3-.8-.45-1.59-.45-2.39v-31.29c-1.3-.71-2.28-1.63-2.93-2.79-.65-1.15-.98-2.36-.98-3.65s.35-2.5,1.05-3.65c.7-1.15,1.65-2.12,2.85-2.92-.1-1.68-.13-3.09-.07-4.24.05-1.15.07-2.25.07-3.31v-3.25c0-1.1-.1-2.41-.3-3.91-.1-1.24-.43-2.45-.98-3.65-.55-1.19-1.03-2.39-1.43-3.58-.4-1.19-.55-2.41-.45-3.65.1-1.24.7-2.43,1.8-3.58,1.5-1.59,3.33-2.54,5.48-2.85,2.15-.31,4.33-.55,6.53-.73,4.6-.27,9.18-.4,13.74-.4s9.13-.09,13.74-.27c1.3,0,2.7-.11,4.2-.33,1.5-.22,3-.4,4.5-.53,1.5-.13,3-.13,4.5,0,1.5.13,2.85.51,4.05,1.13,1.5.79,2.6,1.81,3.3,3.05.7,1.24,1.02,2.52.98,3.84-.05,1.33-.48,2.61-1.28,3.85-.8,1.24-1.95,2.21-3.45,2.92-2.6,1.24-5.46,1.88-8.56,1.92-3.1.04-6.06.11-8.86.2-3.3.09-6.6.11-9.91.07-3.3-.04-6.6.02-9.91.2.2,1.68.35,3.67.45,5.97.1,2.3.15,5.66.15,10.08,3.2,0,6.45-.04,9.76-.13,3.3-.09,6.55-.35,9.76-.79,1.7-.18,3.5-.51,5.4-1,1.9-.48,3.7-.64,5.4-.46,2,.18,3.75.84,5.25,1.99,1.5,1.15,2.53,2.45,3.08,3.91.55,1.46.53,2.96-.07,4.51-.6,1.55-1.95,2.85-4.05,3.91-2.5,1.24-5.18,2.14-8.03,2.72-2.85.58-5.78.97-8.78,1.19-3,.22-6,.31-9.01.26-3-.04-5.91-.07-8.71-.07v29.57c-.3,1.95-1.1,3.62-2.4,5.04Z"/>
    <path class="cls-1" d="M496.07,936.75c2.3.97,4.05,2.21,5.25,3.71,1.2,1.5,1.78,3.03,1.73,4.58-.05,1.55-.7,3.01-1.95,4.38-1.25,1.37-3.18,2.41-5.78,3.12-1,.27-2.4.42-4.2.46-1.8.04-4.3.07-7.51.07h-12.16c-4.9,0-10.96.04-18.16.13-1.8.09-3.65.13-5.55.13s-3.55-.58-4.95-1.72c-1.2-.88-2.08-2.23-2.63-4.04-.55-1.81-.9-3.71-1.05-5.7-.15-1.99-.2-3.98-.15-5.97.05-1.99.08-3.65.08-4.97,0-2.65.02-5.7.07-9.15.05-3.45.1-6.96.15-10.54.05-3.58.07-7.09.07-10.54v-9.15c0-4.68.05-8.46.15-11.34.1-2.87.32-5.13.68-6.76.35-1.63.92-2.83,1.73-3.58.8-.75,1.9-1.39,3.3-1.92,1.2-.44,2.53-.6,3.98-.46,1.45.13,2.8.49,4.05,1.06,1.25.58,2.3,1.37,3.15,2.39.85,1.02,1.28,2.14,1.28,3.38.2,10.61.2,21.13,0,31.56-.2,10.43-.3,20.86-.3,31.29,6.3,0,12.58-.07,18.84-.2,6.25-.13,12.58-.29,18.99-.46l.9.26Z"/>
    <path class="cls-1" d="M565.65,935.69c2.6.09,4.75.78,6.46,2.06,1.7,1.28,2.8,2.76,3.3,4.44.5,1.68.35,3.34-.45,4.97-.8,1.64-2.45,2.89-4.95,3.78-1.8.62-3.93,1.01-6.38,1.19-2.45.18-4.91.24-7.36.2-2.45-.04-4.73-.13-6.83-.26s-3.7-.2-4.8-.2h-8.86c-2.1,0-3.9-.51-5.4-1.52-1.5-1.02-2.58-2.23-3.23-3.65-.65-1.41-.8-2.92-.45-4.51.35-1.59,1.28-3.05,2.78-4.38,1.4-1.24,3.25-1.94,5.55-2.12,2.3-.18,4.6-.18,6.91,0v-52.51c-2.3,0-4.45-.02-6.45-.07-2-.04-4-.68-6-1.92-1.5-.97-2.5-2.1-3-3.38-.5-1.28-.58-2.56-.22-3.85.35-1.28,1.02-2.5,2.03-3.65,1-1.15,2.25-1.99,3.75-2.52,1.4-.53,2.85-.79,4.35-.79,5.1,0,10.23-.02,15.39-.07,5.15-.04,10.33-.02,15.54.07.5,0,.98.13,1.43.4s.92.49,1.43.66c2.3,1.15,3.85,2.78,4.65,4.91.8,2.12.5,4.2-.9,6.23-.7,1.06-1.58,1.88-2.63,2.45-1.05.58-2.2.97-3.45,1.19-1.25.22-2.53.33-3.83.33h-3.75v52.77c.8,0,1.52-.02,2.18-.07.65-.04,1.37-.11,2.18-.2h1.05Z"/>
    <path class="cls-1" d="M603.7,874.96c.3-.97.8-1.92,1.5-2.85.7-.93,1.52-1.74,2.48-2.45.95-.71,2-1.21,3.15-1.52,1.15-.31,2.33-.29,3.53.07,3.7-1.33,7.48-2.43,11.33-3.32,3.85-.88,7.71-1.39,11.56-1.52,3.85-.13,7.66.18,11.41.93,3.75.75,7.38,2.14,10.88,4.18,2.8,1.59,5.28,3.58,7.43,5.97,2.15,2.39,3.93,4.91,5.33,7.56,2.4,4.77,3.5,9.53,3.3,14.25-.2,4.73-1.45,9.13-3.75,13.19-2.3,4.07-5.53,7.65-9.68,10.74-4.15,3.1-9.03,5.35-14.64,6.76-4.2,1.06-8.48,1.57-12.83,1.52-4.35-.04-8.63-.29-12.83-.73v12.86c0,.97.05,1.99.15,3.05.1,1.06.12,2.12.08,3.18-.05,1.06-.2,2.1-.45,3.12-.25,1.02-.73,1.97-1.43,2.85-1.2,1.77-2.75,2.85-4.65,3.25-1.9.4-3.73.31-5.48-.26-1.75-.58-3.25-1.55-4.5-2.92-1.25-1.37-1.88-3.03-1.88-4.97v-23.87c-1.9-.88-3.3-1.99-4.2-3.32-.9-1.33-1.3-2.67-1.2-4.04.1-1.37.6-2.67,1.5-3.91.9-1.24,2.15-2.25,3.75-3.05v-33.95l.15-.8ZM647.39,880.79c-4.2-1.5-8.48-1.94-12.83-1.33-4.35.62-8.58,1.77-12.69,3.45v28.91c4.7.71,9.51.88,14.41.53,4.9-.35,9.41-1.68,13.51-3.98,2.9-1.68,4.9-3.8,6-6.37,1.1-2.56,1.5-5.17,1.2-7.82-.3-2.65-1.3-5.19-3-7.62-1.7-2.43-3.9-4.35-6.6-5.77Z"/>
  </g>
  <g class="cls-3">
    <path class="cls-4" d="M185.4,516.6c2.13-1.88,4.57-2.97,7.31-3.27,2.73-.29,5.24.03,7.51.97,2.27.94,4.03,2.45,5.3,4.51,1.27,2.06,1.57,4.51.9,7.34-.8,2.83-2.34,5.45-4.6,7.87-2.27,2.42-4.54,4.63-6.81,6.63-5.2,4.83-10.98,8.4-17.31,10.7-6.34,2.3-12.74,3.39-19.21,3.27-6.47-.12-12.81-1.48-19.01-4.07-6.2-2.59-11.78-6.48-16.71-11.67-2.94-3.06-5.4-6.3-7.41-9.72-2-3.42-3.54-7.01-4.6-10.78-1.6-5.54-2.34-11.32-2.2-17.33.13-6.01,1.2-11.85,3.2-17.5,2-5.66,4.83-10.99,8.51-16,3.67-5.01,8.17-9.28,13.51-12.82,3.87-2.59,7.77-4.83,11.71-6.72,3.93-1.88,8.11-3.65,12.51-5.3,2.53-.94,5.14-1.86,7.81-2.74,2.67-.88,5.4-1.56,8.21-2.03,2.8-.47,5.6-.65,8.41-.53,2.8.12,5.54.65,8.21,1.59,1.87.71,3.73,1.68,5.6,2.92,1.87,1.24,3.6,2.65,5.2,4.24,1.6,1.59,3,3.27,4.2,5.04,1.2,1.77,2.07,3.48,2.6,5.13.4,1.53.5,3.09.3,4.69-.2,1.59-.74,3.04-1.6,4.33-.87,1.3-2.04,2.39-3.5,3.27-1.47.88-3.14,1.44-5,1.68-3.07.35-5.44.06-7.11-.88-1.67-.94-3-2.12-4-3.54-1-1.41-1.97-2.8-2.9-4.15-.94-1.35-2.27-2.33-4-2.92-1.07,0-1.87.06-2.4.18-4.54,1.06-9.11,2.51-13.71,4.33-4.6,1.83-8.88,4.04-12.81,6.63-3.94,2.59-7.37,5.6-10.31,9.02-2.94,3.42-5.07,7.25-6.4,11.49-1.6,5.07-2.2,10.2-1.8,15.38.4,5.19,2,10.08,4.8,14.67,1.6,2.71,3.73,5.07,6.4,7.07,2.67,2,5.6,3.51,8.81,4.51,3.2,1,6.47,1.36,9.81,1.06,3.33-.29,6.54-1.33,9.61-3.09,2.67-1.65,5.07-3.68,7.21-6.1,2.13-2.41,4.07-4.86,5.8-7.34Z"/>
    <path class="cls-4" d="M239.94,442.17c.53-4.36,2.23-7.57,5.1-9.64,2.87-2.06,5.9-3.06,9.11-3.01,3.2.06,6.17,1.15,8.91,3.27,2.73,2.12,4.17,5.13,4.3,9.02.27,4.01-.9,7.1-3.5,9.28-2.6,2.18-5.57,3.42-8.91,3.71-3.34.3-6.47-.5-9.41-2.39-2.94-1.88-4.74-4.89-5.4-9.02l-.2-1.24ZM266.36,542.77c-.27,2.36-1.2,4.45-2.8,6.28s-3.44,3.15-5.5,3.98c-2.07.82-4.3,1-6.71.53-2.4-.47-4.54-1.77-6.4-3.89-1.07-1.18-1.84-2.5-2.3-3.98-.47-1.47-.77-3.01-.9-4.6-.13-1.59-.17-3.18-.1-4.77.07-1.59.1-3.03.1-4.33-.13-6.95-.17-13.85-.1-20.69.07-6.83.03-13.73-.1-20.69,0-2.83-.2-5.69-.6-8.57-.4-2.89-.2-5.75.6-8.57.67-2.12,1.83-3.95,3.5-5.48,1.67-1.53,3.53-2.59,5.6-3.18,2.07-.59,4.2-.65,6.41-.18,2.2.47,4.1,1.71,5.7,3.71,2.13,2.36,3.2,4.69,3.2,6.98v20.42c0,4.01.07,7.96.2,11.85.13,5.66.2,11.32.2,16.97v18.21Z"/>
    <path class="cls-4" d="M386.55,543.12c-.4,2.95-1.64,5.36-3.7,7.25-2.07,1.88-4.4,3.06-7.01,3.54-2.6.47-5.1.18-7.51-.88s-4.14-3.12-5.2-6.19c-1.2-3.3-1.67-6.75-1.4-10.34.27-3.59.4-6.92.4-9.99,0-6.36.03-12.7.1-19.01.07-6.3-.23-12.64-.9-19.01-.13-.23-.27-.44-.4-.62-.13-.18-.4-.44-.8-.8-3.07-.71-6.34-.53-9.81.53-3.47,1.06-6.41,2.42-8.81,4.07-2.14,1.53-4.24,3.62-6.3,6.28-2.07,2.65-3.1,5.22-3.1,7.69v24.4c0,1.89.07,3.95.2,6.19.13,2.24.03,4.42-.3,6.54-.33,2.12-1.1,4.07-2.3,5.83-1.2,1.77-3.14,3.06-5.8,3.89-1.47.47-2.84.65-4.1.53-1.27-.12-2.64-.41-4.1-.88-2.4-.71-4.14-1.92-5.2-3.62-1.07-1.71-1.8-3.54-2.2-5.48-.4-1.94-.57-3.83-.5-5.66.07-1.83.1-3.27.1-4.33,0-2.71-.03-6.63-.1-11.76-.07-5.13-.1-10.52-.1-16.18v-27.93c0-2.59.87-4.74,2.6-6.45,1.73-1.71,3.77-2.83,6.1-3.36,2.33-.53,4.8-.41,7.41.35,2.6.77,4.77,2.33,6.5,4.69,5.34-3.06,11.21-5.13,17.61-6.19,6.4-1.06,12.44-.88,18.11.53,5.67,1.41,10.41,4.07,14.21,7.96,3.8,3.89,5.77,9.25,5.9,16.09,0,.24.07.94.2,2.12.13,1.18.2,2.83.2,4.95v45.26Z"/>
    <path class="cls-4" d="M496.33,524.03c3.2-.71,6.04-.74,8.51-.09,2.47.65,4.37,1.74,5.7,3.27,1.33,1.53,1.93,3.42,1.8,5.66-.13,2.24-1.27,4.6-3.4,7.07-1.74,2.01-4.14,3.71-7.21,5.13-3.07,1.42-5.94,2.54-8.61,3.36-6.54,2.12-12.74,3.59-18.61,4.42-5.87.82-11.38.82-16.51,0-5.14-.83-9.94-2.54-14.41-5.13-4.47-2.59-8.64-6.25-12.51-10.96-2.67-3.18-4.64-6.81-5.9-10.87-1.27-4.07-1.97-8.22-2.1-12.46-.13-4.24.27-8.43,1.2-12.55.93-4.12,2.27-7.84,4-11.14,2.27-4.12,5.87-7.9,10.81-11.31,4.94-3.42,10.41-6.13,16.41-8.13,6-2,12.14-3.15,18.41-3.45,6.27-.29,11.81.56,16.61,2.56,4,1.65,7.44,4.04,10.31,7.16,2.87,3.12,4.83,6.51,5.9,10.17,1.07,3.65,1.17,7.34.3,11.05-.87,3.71-3.04,7.1-6.5,10.17-3.34,2.95-7.01,5.33-11.01,7.16-4,1.83-8.14,3.42-12.41,4.77-4.27,1.36-8.64,2.51-13.11,3.45-4.47.94-8.78,2-12.91,3.18,2.8,2.83,6,4.63,9.61,5.39,3.6.77,7.37.91,11.31.44,3.93-.47,7.91-1.44,11.91-2.92,4-1.47,7.74-3.09,11.21-4.86l1.2-.53ZM455.9,493.62c-3.07,1.53-5.34,3.45-6.81,5.75-1.47,2.3-2.54,5.51-3.2,9.64,3.47-.94,7.37-1.94,11.71-3.01,4.33-1.06,8.44-2.18,12.31-3.36,3.87-1.18,7.14-2.48,9.81-3.89,2.67-1.41,4-2.94,4-4.6,0-.94-.17-1.86-.5-2.74-.33-.88-1.04-1.5-2.1-1.86-3.74-1.18-7.61-1.41-11.61-.71-4,.71-7.34,1.71-10.01,3.01l-3.6,1.77Z"/>
    <path class="cls-4" d="M647.94,542.59c-.4,2.59-1.4,4.8-3,6.63s-3.44,3.09-5.5,3.8c-2.07.71-4.27.8-6.61.27-2.34-.53-4.5-1.92-6.5-4.16-1.74-1.88-2.7-3.98-2.9-6.28-.2-2.3-.57-4.57-1.1-6.81-1.34-6.48-3.27-13.14-5.8-19.98-8.28.12-16.48.18-24.62.18s-16.28.06-24.42.18c-1.2,3.07-2.24,6.19-3.1,9.37-.87,3.18-1.7,6.31-2.5,9.37-.67,2.36-1.27,4.8-1.8,7.34-.54,2.54-1.74,4.75-3.6,6.63-2.27,2.36-4.7,3.68-7.31,3.98-2.6.29-4.94-.09-7.01-1.15-2.07-1.06-3.74-2.68-5-4.86-1.27-2.18-1.7-4.68-1.3-7.51.4-3.65,1.2-7.25,2.4-10.78s2.33-7.07,3.4-10.61c6-20.27,13.74-39.9,23.22-58.87.8-1.65,1.63-3.24,2.5-4.77.87-1.53,1.7-3.06,2.5-4.6.93-1.65,1.87-3.42,2.8-5.3.93-1.88,2.03-3.62,3.3-5.22,1.27-1.59,2.77-2.94,4.5-4.07,1.73-1.12,3.87-1.68,6.4-1.68,3.33,0,6.14.94,8.41,2.83,9.07,8.02,16.54,17.06,22.42,27.14,5.87,10.08,11.14,20.36,15.81,30.85,2.8-.12,5.54-.12,8.21,0,2.67.12,5.07,1.18,7.21,3.18,1.87,1.65,2.97,3.42,3.3,5.3.33,1.89.13,3.71-.6,5.48-.73,1.77-1.94,3.3-3.6,4.6-1.67,1.3-3.7,2.18-6.1,2.65,1.33,4.13,2.5,8.34,3.5,12.64,1,4.3,1.83,8.64,2.5,13v1.24ZM607.11,494.5c-2.54-5.3-5.24-10.58-8.11-15.82-2.87-5.24-6.1-10.22-9.71-14.94-2.67,5.19-5.17,10.34-7.51,15.47-2.34,5.13-4.5,10.34-6.5,15.65,6.27-.12,11.77-.18,16.51-.18s9.84-.06,15.31-.18Z"/>
    <path class="cls-4" d="M710.29,536.76c1.47,1.18,2.7,2.68,3.7,4.51,1,1.83,1.53,3.65,1.6,5.48.07,1.83-.4,3.54-1.4,5.13-1,1.59-2.77,2.8-5.3,3.62-2,.59-4.2.71-6.61.35-2.4-.35-4.77-1.06-7.11-2.12-2.34-1.06-4.4-2.33-6.2-3.8-1.8-1.48-3.1-3.09-3.9-4.86-.27-.59-.47-1.26-.6-2.03-.13-.76-.2-1.44-.2-2.03v-98.12c0-2.71,1.17-5.01,3.5-6.9,2.33-1.88,4.9-3.01,7.71-3.36,1.33-.12,2.77.06,4.3.53,1.53.47,2.97,1.15,4.3,2.03,1.33.88,2.43,1.92,3.3,3.09.87,1.18,1.3,2.42,1.3,3.71v12.2c0,5.07.03,10.61.1,16.62.07,6.01.1,12.23.1,18.65s-.03,12.58-.1,18.48c-.07,5.9-.1,11.29-.1,16.18s-.07,8.81-.2,11.76l1.8.88Z"/>
    <path class="cls-4" d="M753.22,488.84c-2.67-.59-4.97-1.59-6.91-3.01-1.94-1.41-3.27-3.06-4-4.95-.74-1.88-.74-3.83,0-5.83.73-2,2.37-3.83,4.9-5.48,2.13-1.41,4.54-2.12,7.21-2.12h7.81c0-.82-.07-2.62-.2-5.39-.13-2.77-.17-5.8-.1-9.1.07-3.3.3-6.45.7-9.46.4-3.01,1.13-5.1,2.2-6.28,2.67-3.3,5.97-4.86,9.91-4.69,3.93.18,7.17,1.86,9.71,5.04.53.59,1.03,1.3,1.5,2.12.47.83.7,1.59.7,2.3.13,4.24.17,8.49.1,12.73-.07,4.24-.1,8.49-.1,12.73h15.81c2.4,0,4.47.71,6.21,2.12,1.73,1.41,2.97,3.07,3.7,4.95.73,1.89.93,3.83.6,5.83-.33,2.01-1.37,3.65-3.1,4.95-3.07,2.24-6.64,3.42-10.71,3.54-4.07.12-8.24.18-12.51.18,0,6.48-.03,12.97-.1,19.45-.07,6.48-.03,12.97.1,19.45,0,2.83.17,5.72.5,8.66.33,2.95.1,5.78-.7,8.49-.67,2.12-1.8,3.8-3.4,5.04-1.6,1.24-3.4,2-5.4,2.3-2,.29-4.07.18-6.21-.35-2.14-.53-4.14-1.5-6-2.92-.93-.83-1.64-2.24-2.1-4.24-.47-2-.77-4.12-.9-6.36-.13-2.59-.13-5.36,0-8.31v-9.19c0-3.77-.03-7.69-.1-11.76-.07-4.07-.1-7.93-.1-11.58v-8.66l-9.01-.18Z"/>
    <path class="cls-4" d="M915.85,539.94c1.07,3.42.87,6.25-.6,8.49-1.47,2.24-3.5,3.74-6.11,4.51-2.6.76-5.44.68-8.51-.27-3.07-.94-5.74-2.83-8.01-5.66-3.74,2.47-7.37,4.21-10.91,5.21-3.54,1-7.57,1.56-12.11,1.68-6.8.24-12.88-.44-18.21-2.03-5.34-1.59-9.84-3.98-13.51-7.16-3.67-3.18-6.37-7.16-8.11-11.93-1.74-4.77-2.34-10.28-1.8-16.53.27-2.59.77-5.13,1.5-7.6.73-2.48,1.57-4.89,2.5-7.25,1.07-2.59,2.57-5.36,4.5-8.31,1.93-2.94,3.9-5.48,5.9-7.6,7.21-7.78,16.21-13.38,27.02-16.8,1.87-.59,4.4-1.12,7.61-1.59,3.2-.47,6.44-.68,9.71-.62,3.27.06,6.41.44,9.41,1.15,3,.71,5.24,1.94,6.71,3.71,1.2,1.41,2.07,2.65,2.6,3.71.53,1.06.83,2.18.9,3.36.07,1.18.07,2.45,0,3.8-.07,1.36-.1,3.04-.1,5.04,0,3.3-.04,6.51-.1,9.64-.07,3.12-.03,6.28.1,9.46v4.15c0,1.71.07,3.51.2,5.39.13,1.89.3,3.69.5,5.39.2,1.71.5,3.09.9,4.15l8.01,14.5ZM873.42,531.98c1.47-.82,3.13-1.74,5-2.74,1.87-1,3.53-2.15,5-3.45-1.2-6.25-1.9-12.49-2.1-18.74-.2-6.25-.17-12.55.1-18.92-6,.94-11.41,3.24-16.21,6.9-4.8,3.65-8.14,7.96-10.01,12.91-.8,2.01-1.47,4.07-2,6.19-.54,2.12-.74,4.18-.6,6.19.13,2.71.93,4.98,2.4,6.81,1.47,1.83,3.23,3.21,5.3,4.15,2.07.95,4.27,1.48,6.6,1.59,2.33.12,4.5-.18,6.51-.88Z"/>
  </g>
</svg>